REM DIRINDEX 1\2,1\3,1\4
REM DIRNAME cjc151,folder01,folder02,folder03
TITLE ""
FILE "010 010_TOEFL_3900.mp3" MP3
  TRACK 01 AUDIO
    TITLE "2:cjc151_0400"
    INDEX 01 00:00:00
  TRACK 02 AUDIO
    TITLE "0:"
    INDEX 01 00:01:40
  TRACK 03 AUDIO
    TITLE "3:cjc151_0401"
    INDEX 01 00:03:19
  TRACK 04 AUDIO
    TITLE "0:"
    INDEX 01 00:07:70
  TRACK 05 AUDIO
    TITLE "2:cjc151_0402"
    INDEX 01 00:09:49
  TRACK 06 AUDIO
    TITLE "0:"
    INDEX 01 00:10:45
  TRACK 07 AUDIO
    TITLE "3:cjc151_0403"
    INDEX 01 00:12:30
  TRACK 08 AUDIO
    TITLE "0:"
    INDEX 01 00:16:18
  TRACK 09 AUDIO
    TITLE "2:cjc151_0404"
    INDEX 01 00:17:72
  TRACK 10 AUDIO
    TITLE "0:"
    INDEX 01 00:19:20
  TRACK 11 AUDIO
    TITLE "3:cjc151_0405"
    INDEX 01 00:21:13
  TRACK 12 AUDIO
    TITLE "0:"
    INDEX 01 00:25:35
  TRACK 13 AUDIO
    TITLE "2:cjc151_0406"
    INDEX 01 00:27:14
  TRACK 14 AUDIO
    TITLE "0:"
    INDEX 01 00:28:13
  TRACK 15 AUDIO
    TITLE "3:cjc151_0407"
    INDEX 01 00:29:68
  TRACK 16 AUDIO
    TITLE "0:"
    INDEX 01 00:33:22
  TRACK 17 AUDIO
    TITLE "2:cjc151_0408"
    INDEX 01 00:35:02
  TRACK 18 AUDIO
    TITLE "0:"
    INDEX 01 00:36:03
  TRACK 19 AUDIO
    TITLE "3:cjc151_0409"
    INDEX 01 00:37:57
  TRACK 20 AUDIO
    TITLE "0:"
    INDEX 01 00:41:20
  TRACK 21 AUDIO
    TITLE "2:cjc151_0410"
    INDEX 01 00:42:72
  TRACK 22 AUDIO
    TITLE "0:"
    INDEX 01 00:44:20
  TRACK 23 AUDIO
    TITLE "3:cjc151_0411"
    INDEX 01 00:45:73
  TRACK 24 AUDIO
    TITLE "0:"
    INDEX 01 00:50:15
  TRACK 25 AUDIO
    TITLE "2:cjc151_0412"
    INDEX 01 00:51:71
  TRACK 26 AUDIO
    TITLE "0:"
    INDEX 01 00:53:21
  TRACK 27 AUDIO
    TITLE "3:cjc151_0413"
    INDEX 01 00:55:04
  TRACK 28 AUDIO
    TITLE "0:"
    INDEX 01 00:59:00
  TRACK 29 AUDIO
    TITLE "2:cjc151_0414"
    INDEX 01 01:00:53
  TRACK 30 AUDIO
    TITLE "0:"
    INDEX 01 01:01:72
  TRACK 31 AUDIO
    TITLE "3:cjc151_0415"
    INDEX 01 01:03:51
  TRACK 32 AUDIO
    TITLE "0:"
    INDEX 01 01:07:74
  TRACK 33 AUDIO
    TITLE "2:cjc151_0416"
    INDEX 01 01:09:56
  TRACK 34 AUDIO
    TITLE "0:"
    INDEX 01 01:10:69
  TRACK 35 AUDIO
    TITLE "3:cjc151_0417"
    INDEX 01 01:12:50
  TRACK 36 AUDIO
    TITLE "0:"
    INDEX 01 01:16:44
  TRACK 37 AUDIO
    TITLE "2:cjc151_0418"
    INDEX 01 01:18:23
  TRACK 38 AUDIO
    TITLE "0:"
    INDEX 01 01:19:28
  TRACK 39 AUDIO
    TITLE "3:cjc151_0419"
    INDEX 01 01:21:08
  TRACK 40 AUDIO
    TITLE "0:"
    INDEX 01 01:25:41
  TRACK 41 AUDIO
    TITLE "2:cjc151_0420"
    INDEX 01 01:27:20
  TRACK 42 AUDIO
    TITLE "0:"
    INDEX 01 01:28:24
  TRACK 43 AUDIO
    TITLE "3:cjc151_0421"
    INDEX 01 01:30:03
  TRACK 44 AUDIO
    TITLE "0:"
    INDEX 01 01:34:59
  TRACK 45 AUDIO
    TITLE "2:cjc151_0422"
    INDEX 01 01:36:41
  TRACK 46 AUDIO
    TITLE "0:"
    INDEX 01 01:37:34
  TRACK 47 AUDIO
    TITLE "3:cjc151_0423"
    INDEX 01 01:39:14
  TRACK 48 AUDIO
    TITLE "0:"
    INDEX 01 01:43:07
  TRACK 49 AUDIO
    TITLE "2:cjc151_0424"
    INDEX 01 01:44:60
  TRACK 50 AUDIO
    TITLE "0:"
    INDEX 01 01:45:67
  TRACK 51 AUDIO
    TITLE "3:cjc151_0425"
    INDEX 01 01:47:46
  TRACK 52 AUDIO
    TITLE "0:"
    INDEX 01 01:50:58
  TRACK 53 AUDIO
    TITLE "2:cjc151_0426"
    INDEX 01 01:52:38
  TRACK 54 AUDIO
    TITLE "0:"
    INDEX 01 01:53:53
  TRACK 55 AUDIO
    TITLE "3:cjc151_0427"
    INDEX 01 01:55:30
  TRACK 56 AUDIO
    TITLE "0:"
    INDEX 01 01:58:54
  TRACK 57 AUDIO
    TITLE "2:cjc151_0428"
    INDEX 01 02:00:33
  TRACK 58 AUDIO
    TITLE "0:"
    INDEX 01 02:03:16
  TRACK 59 AUDIO
    TITLE "3:cjc151_0429"
    INDEX 01 02:04:70
  TRACK 60 AUDIO
    TITLE "0:"
    INDEX 01 02:09:01
  TRACK 61 AUDIO
    TITLE "2:cjc151_0430"
    INDEX 01 02:10:55
  TRACK 62 AUDIO
    TITLE "0:"
    INDEX 01 02:11:57
  TRACK 63 AUDIO
    TITLE "3:cjc151_0431"
    INDEX 01 02:13:36
  TRACK 64 AUDIO
    TITLE "0:"
    INDEX 01 02:19:05
  TRACK 65 AUDIO
    TITLE "2:cjc151_0432"
    INDEX 01 02:20:60
  TRACK 66 AUDIO
    TITLE "0:"
    INDEX 01 02:21:67
  TRACK 67 AUDIO
    TITLE "3:cjc151_0433"
    INDEX 01 02:23:44
  TRACK 68 AUDIO
    TITLE "0:"
    INDEX 01 02:27:32
  TRACK 69 AUDIO
    TITLE "2:cjc151_0434"
    INDEX 01 02:29:17
  TRACK 70 AUDIO
    TITLE "0:"
    INDEX 01 02:30:09
  TRACK 71 AUDIO
    TITLE "3:cjc151_0435"
    INDEX 01 02:31:63
  TRACK 72 AUDIO
    TITLE "0:"
    INDEX 01 02:35:02
  TRACK 73 AUDIO
    TITLE "2:cjc151_0436"
    INDEX 01 02:36:59
  TRACK 74 AUDIO
    TITLE "0:"
    INDEX 01 02:37:56
  TRACK 75 AUDIO
    TITLE "3:cjc151_0437"
    INDEX 01 02:39:37
  TRACK 76 AUDIO
    TITLE "0:"
    INDEX 01 02:43:25
  TRACK 77 AUDIO
    TITLE "2:cjc151_0438"
    INDEX 01 02:45:03
  TRACK 78 AUDIO
    TITLE "0:"
    INDEX 01 02:46:02
  TRACK 79 AUDIO
    TITLE "3:cjc151_0439"
    INDEX 01 02:47:56
  TRACK 80 AUDIO
    TITLE "0:"
    INDEX 01 02:52:50
  TRACK 81 AUDIO
    TITLE "2:cjc151_0440"
    INDEX 01 02:54:29
  TRACK 82 AUDIO
    TITLE "0:"
    INDEX 01 02:55:30
  TRACK 83 AUDIO
    TITLE "3:cjc151_0441"
    INDEX 01 02:57:12
  TRACK 84 AUDIO
    TITLE "0:"
    INDEX 01 03:00:65
  TRACK 85 AUDIO
    TITLE "2:cjc151_0442"
    INDEX 01 03:02:46
  TRACK 86 AUDIO
    TITLE "0:"
    INDEX 01 03:03:63
  TRACK 87 AUDIO
    TITLE "3:cjc151_0443"
    INDEX 01 03:05:45
  TRACK 88 AUDIO
    TITLE "0:"
    INDEX 01 03:09:72
